# This file uses centimeters as units for non-parametric coordinates.

mtllib Basin_Inside.mtl
g default
v 3.896125 5.408385 -2.701540
v 4.192941 5.410618 -2.850689
v 4.335992 5.369983 -3.196333
v 4.219693 5.292931 -3.946433
v 3.583333 5.292931 -3.946433
v 3.583378 5.408513 -2.681481
v 3.038332 5.292931 -3.946433
v 2.844329 5.375678 -3.205917
v 2.977503 5.412327 -2.853170
v 3.270968 5.408935 -2.701722
v 2.356069 5.573051 -2.816048
v 2.356069 5.573051 -4.162222
v 3.583333 5.573051 -4.290358
v 4.810597 5.573051 -4.162222
v 4.786069 5.573051 -2.816048
v 4.491883 5.573051 -2.511882
v 4.012833 5.573051 -2.283376
v 3.583333 5.573051 -2.209754
v 3.153833 5.573051 -2.283376
v 2.674783 5.573051 -2.511882
v 3.846211 5.326268 -2.932293
v 4.072721 5.320059 -3.002107
v 4.192884 5.243837 -3.247128
v 4.219693 5.124887 -3.943350
v 3.583333 5.124887 -3.943350
v 3.583527 5.280910 -2.907481
v 3.038332 5.124887 -3.943350
v 2.991864 5.244160 -3.243502
v 3.100360 5.320724 -3.001523
v 3.322199 5.326579 -2.932111
v 3.586822 5.258671 -3.946201
v 4.174575 5.258671 -3.946201
v 3.083450 5.258671 -3.946201
v 4.174575 5.159147 -3.943581
v 3.586822 5.159147 -3.943581
v 3.083450 5.159147 -3.943581
v 3.586822 5.256530 -4.263351
v 4.174575 5.253428 -4.263301
v 3.083450 5.253428 -4.263301
v 4.174575 5.153903 -4.260680
v 3.586822 5.157006 -4.260732
v 3.083450 5.153903 -4.260680
v 4.219629 5.999999 -2.146336
v 4.929333 5.999999 -2.397962
v 5.365165 5.999999 -2.738231
v 5.401502 5.999999 -4.475679
v 3.583333 5.999999 -4.475679
v 3.583333 5.999999 -2.059972
v 1.765165 5.999999 -4.475679
v 1.765165 5.999999 -2.738231
v 2.237333 5.999999 -2.397962
v 2.947038 5.999999 -2.146336
vt 0.881290 0.053242
vt 0.885542 0.055126
vt 0.888056 0.056100
vt 0.886529 0.072637
vt 0.877566 0.072542
vt 0.877369 0.052177
vt 0.869710 0.072446
vt 0.866482 0.056104
vt 0.869183 0.055086
vt 0.873449 0.053200
vt 0.891277 0.032315
vt 0.905481 0.040386
vt 0.894700 0.044405
vt 0.885631 0.039261
vt 0.913605 0.048699
vt 0.900281 0.050743
vt 0.914078 0.085489
vt 0.900767 0.078073
vt 0.877295 0.091419
vt 0.877274 0.082459
vt 0.877378 0.029525
vt 0.877375 0.037824
vt 0.840634 0.085507
vt 0.853895 0.078106
vt 0.840566 0.048842
vt 0.854075 0.050827
vt 0.849297 0.040324
vt 0.860060 0.044397
vt 0.863483 0.032297
vt 0.869122 0.039242
vt 0.865473 0.055182
vt 0.866633 0.073662
vt 0.877230 0.073940
vt 0.889628 0.073435
vt 0.889001 0.055125
vt 0.886163 0.054030
vt 0.881580 0.052170
vt 0.877373 0.051160
vt 0.873154 0.052129
vt 0.868572 0.053990
vt 0.929298 0.203175
vt 0.942026 0.203165
vt 0.941956 0.203850
vt 0.930201 0.203860
vt 0.952925 0.203176
vt 0.952023 0.203860
vt 0.950095 0.165563
vt 0.952227 0.165547
vt 0.952213 0.166860
vt 0.950071 0.166853
vt 0.938028 0.165555
vt 0.938028 0.166858
vt 0.925223 0.165557
vt 0.927831 0.165555
vt 0.927813 0.166858
vt 0.925247 0.166858
vt 0.941955 0.210194
vt 0.930203 0.210202
vt 0.952019 0.210203
vt 0.952209 0.173339
vt 0.950046 0.173323
vt 0.938028 0.173337
vt 0.927818 0.173343
vt 0.925256 0.173347
vn -0.039521 0.977203 -0.208598
vn -0.068052 0.974880 -0.212079
vn -0.153514 0.971084 -0.182839
vn -0.171694 0.973464 -0.151294
vn -0.000085 0.988233 -0.152957
vn -0.000010 0.977470 -0.211074
vn 0.177292 0.974368 -0.138471
vn 0.171203 0.970348 -0.170628
vn 0.075889 0.973878 -0.214015
vn 0.042326 0.976599 -0.210864
vn -0.267299 0.442468 -0.856022
vn -0.434951 0.632551 -0.640856
vn -0.334992 0.735389 -0.589053
vn -0.194205 0.662415 -0.723526
vn -0.585941 0.805318 -0.090202
vn -0.524503 0.841181 -0.131574
vn -0.484506 0.826198 0.287492
vn -0.396403 0.833416 0.385075
vn -0.000000 0.522769 0.852474
vn 0.000000 0.593321 0.804966
vn -0.000000 0.348864 -0.937173
vn 0.000150 0.634554 -0.772878
vn 0.481103 0.827115 0.290553
vn 0.387979 0.839355 0.380731
vn 0.580462 0.809937 -0.084058
vn 0.510896 0.850066 -0.127961
vn 0.423843 0.627478 -0.653168
vn 0.328274 0.740350 -0.586616
vn 0.267299 0.442468 -0.856022
vn 0.194633 0.663169 -0.722721
vn 0.403270 0.914210 -0.039921
vn 0.308346 0.884510 0.350094
vn 0.000000 0.708288 0.705924
vn -0.326985 0.879579 0.345575
vn -0.437384 0.897162 -0.061615
vn -0.215124 0.934960 -0.282085
vn -0.106994 0.933725 -0.341629
vn 0.000448 0.932951 -0.360003
vn 0.108515 0.934323 -0.339506
vn 0.213231 0.938189 -0.272644
vn -0.000000 -0.992302 0.123840
vn -0.166456 -0.959597 0.226862
vn 0.193092 -0.953184 0.232714
vn -0.159661 0.965680 0.204868
vn -0.000000 0.994904 0.100825
vn 0.185257 0.959785 0.210932
vn -0.000000 -0.999932 0.011643
vn -0.168518 -0.985632 0.011476
vn 0.195760 -0.980586 0.011418
vn -0.165481 0.986146 -0.011482
vn 0.000000 0.999932 -0.011643
vn 0.192267 0.981276 -0.011425
s 1
g initialShadingGroup textureBakeSet1 BasinInside Basin Basin Porta_Potty
usemtl blinn1SG
f 21/1/1 22/2/2 23/3/3 24/4/4 25/5/5 26/6/6
f 25/5/5 27/7/7 28/8/8 29/9/9 30/10/10 26/6/6
f 43/11/11 44/12/12 16/13/13 17/14/14
f 44/12/12 45/15/15 15/16/16 16/13/13
f 45/15/15 46/17/17 14/18/18 15/16/16
f 46/17/17 47/19/19 13/20/20 14/18/18
f 48/21/21 43/11/11 17/14/14 18/22/22
f 47/19/19 49/23/23 12/24/24 13/20/20
f 49/23/23 50/25/25 11/26/26 12/24/24
f 50/25/25 51/27/27 20/28/28 11/26/26
f 51/27/27 52/29/29 19/30/30 20/28/28
f 52/29/29 48/21/21 18/22/22 19/30/30
f 12/24/24 11/26/26 8/31/31 7/32/32
f 13/20/20 12/24/24 7/32/32 5/33/33
f 14/18/18 13/20/20 5/33/33 4/34/34
f 15/16/16 14/18/18 4/34/34 3/35/35
f 16/13/13 15/16/16 3/35/35 2/36/36
f 17/14/14 16/13/13 2/36/36 1/37/37
f 18/22/22 17/14/14 1/37/37 6/38/38
f 19/30/30 18/22/22 6/38/38 10/39/39
f 20/28/28 19/30/30 10/39/39 9/40/40
f 11/26/26 20/28/28 9/40/40 8/31/31
f 1/37/37 2/36/36 22/2/2 21/1/1
f 2/36/36 3/35/35 23/3/3 22/2/2
f 3/35/35 4/34/34 24/4/4 23/3/3
f 6/38/38 1/37/37 21/1/1 26/6/6
f 7/32/32 8/31/31 28/8/8 27/7/7
f 8/31/31 9/40/40 29/9/9 28/8/8
f 9/40/40 10/39/39 30/10/10 29/9/9
f 10/39/39 6/38/38 26/6/6 30/10/10
f 4/41/34 5/42/33 31/43/41 32/44/42
f 5/42/33 7/45/32 33/46/43 31/43/41
f 24/47/4 4/48/34 32/49/42 34/50/44
f 25/51/5 24/47/4 34/50/44 35/52/45
f 7/53/32 27/54/7 36/55/46 33/56/43
f 27/54/7 25/51/5 35/52/45 36/55/46
f 32/44/42 31/43/41 37/57/47 38/58/48
f 31/43/41 33/46/43 39/59/49 37/57/47
f 34/50/44 32/49/42 38/60/48 40/61/50
f 35/52/45 34/50/44 40/61/50 41/62/51
f 33/56/43 36/55/46 42/63/52 39/64/49
f 36/55/46 35/52/45 41/62/51 42/63/52
