# This file uses centimeters as units for non-parametric coordinates.

mtllib Toilet.mtl
g default
v -1.979807 0.000000 1.108198
v 1.442040 0.000000 1.108198
v -1.979807 2.217356 1.108198
v 1.442040 2.217356 1.108198
v -1.979807 2.217356 -1.108198
v 1.442040 2.217356 -1.108198
v -1.979807 0.000000 -1.108198
v 1.442040 0.000000 -1.108198
v 2.264291 2.217356 0.000000
v 2.264291 0.000000 0.000000
v 2.016250 0.000000 0.725315
v 2.016250 2.217356 0.725315
v 2.016250 2.217356 -0.725315
v 2.016250 0.000000 -0.725315
v -1.979344 2.618574 1.403717
v 1.900424 2.618574 1.403717
v 2.557344 2.618574 0.918733
v 2.841113 2.618574 -0.000000
v 2.557344 2.618574 -0.918733
v 1.900424 2.618574 -1.403717
v -1.979344 2.618574 -1.403717
v -1.979344 2.983846 1.403717
v 1.900424 2.983846 1.403717
v 2.557344 2.983846 0.918733
v 2.841113 2.983846 -0.000000
v 2.557344 2.983846 -0.918733
v 1.900424 2.983846 -1.403717
v -1.979344 2.983846 -1.403717
v -0.918250 2.983846 1.403717
v -0.918240 2.983846 -1.403717
v -0.918240 2.618574 -1.403717
v -0.918517 2.217356 -1.108198
v -0.918517 0.000000 -1.108198
v -0.918507 0.000000 1.108198
v -0.918507 2.217356 1.108198
v -0.918250 2.618574 1.403717
v -1.979344 6.534460 1.691766
v -0.918250 6.534460 1.691766
v -0.918240 6.534460 -1.691766
v -1.979344 6.534460 -1.691766
v 1.694038 2.983846 1.029393
v 2.232930 2.983846 0.673738
v 2.465715 2.983846 0.000000
v 2.232930 2.983846 -0.673737
v 1.694038 2.983846 -1.029392
v -0.618199 2.983846 -1.029392
v -0.618207 2.983846 1.029393
v 0.846359 1.460380 0.626908
v 1.127964 1.460380 0.410311
v 1.249608 1.460380 0.000001
v 1.127964 1.460380 -0.410310
v 0.846359 1.460380 -0.626907
v -0.361930 1.460380 -0.626907
v -0.361934 1.460380 0.626908
v 0.399213 0.633038 0.376145
v 0.568176 0.633038 0.246187
v 0.641162 0.633038 0.000001
v 0.568176 0.633038 -0.246186
v 0.399213 0.633038 -0.376144
v -0.325760 0.633038 -0.376144
v -0.325763 0.633038 0.376145
v 1.352861 2.222113 -0.925045
v 1.811110 2.222113 -0.605442
v 2.009059 2.222113 0.000000
v 1.811110 2.222113 0.605443
v 1.352861 2.222113 0.925046
v -0.613364 2.222113 0.925046
v -0.613357 2.222113 -0.925045
v 0.287865 0.000000 1.108198
v 0.287865 2.217356 1.108198
v 0.282977 2.618574 1.403717
v 0.282977 2.983846 1.403717
v 0.281979 2.983846 1.029393
v 0.285563 2.222113 0.925046
v 0.288282 1.460380 0.626908
v 0.292661 0.633038 0.376145
v 0.288892 0.633038 -0.376144
v 0.287605 1.460380 -0.626907
v 0.286807 2.222113 -0.925045
v 0.285754 2.983846 -1.029392
v 0.286047 2.983846 -1.403717
v 0.286047 2.618574 -1.403717
v 0.287483 2.217356 -1.108198
v 0.287483 0.000000 -1.108198
v 0.290777 0.633038 0.000001
v -0.325762 0.633038 0.000001
v -0.361932 1.460380 0.000000
v -0.613361 2.222113 0.000000
v -0.618203 2.983846 0.000000
v -0.918245 2.983846 0.000000
v -0.918245 6.534460 0.000000
v -1.979344 6.534460 0.000000
v -1.979344 2.983846 0.000000
v -1.979344 2.618574 0.000000
v -1.979807 2.217356 0.000000
v -1.979807 0.000000 0.000000
v -0.918512 0.000000 0.000000
v 0.287674 0.000000 0.000000
v 0.972567 2.983846 -1.029392
vt 0.375000 0.000000
vt 0.625000 0.000000
vt 0.375000 0.250000
vt 0.625000 0.250000
vt 0.375000 0.500000
vt 0.625000 0.500000
vt 0.375000 0.750000
vt 0.625000 0.750000
vt 0.375000 1.000000
vt 0.625000 1.000000
vt 0.875000 0.000000
vt 0.875000 0.250000
vt 0.125000 0.000000
vt 0.125000 0.250000
vt 0.625000 0.375000
vt 0.750000 0.250000
vt 0.625000 0.875000
vt 0.750000 0.000000
vt 0.625000 0.937500
vt 0.687500 0.000000
vt 0.625000 0.312500
vt 0.687500 0.250000
vt 0.625000 0.437500
vt 0.812500 0.250000
vt 0.625000 0.812500
vt 0.812500 0.000000
vt 0.375000 0.250000
vt 0.625000 0.250000
vt 0.625000 0.312500
vt 0.625000 0.375000
vt 0.625000 0.437500
vt 0.625000 0.500000
vt 0.375000 0.500000
vt 0.375000 0.250000
vt 0.625000 0.250000
vt 0.625000 0.312500
vt 0.625000 0.375000
vt 0.625000 0.437500
vt 0.625000 0.500000
vt 0.375000 0.500000
vt 0.437500 0.250000
vt 0.437500 0.500000
vt 0.437500 0.500000
vt 0.437500 0.500000
vt 0.437500 0.750000
vt 0.437500 0.000000
vt 0.437500 1.000000
vt 0.437500 0.250000
vt 0.437500 0.250000
vt 0.375000 0.250000
vt 0.437500 0.250000
vt 0.437500 0.500000
vt 0.375000 0.500000
vt 0.625000 0.250000
vt 0.625000 0.312500
vt 0.625000 0.375000
vt 0.625000 0.437500
vt 0.625000 0.500000
vt 0.437500 0.500000
vt 0.437500 0.250000
vt 0.625000 0.250000
vt 0.625000 0.312500
vt 0.625000 0.375000
vt 0.625000 0.437500
vt 0.625000 0.500000
vt 0.437500 0.500000
vt 0.437500 0.250000
vt 0.625000 0.250000
vt 0.625000 0.312500
vt 0.625000 0.375000
vt 0.625000 0.437500
vt 0.625000 0.500000
vt 0.437500 0.500000
vt 0.437500 0.250000
vt 0.625000 0.500000
vt 0.625000 0.437500
vt 0.625000 0.375000
vt 0.625000 0.312500
vt 0.625000 0.250000
vt 0.437500 0.250000
vt 0.437500 0.500000
vt 0.531250 0.000000
vt 0.531250 1.000000
vt 0.531250 0.250000
vt 0.531250 0.250000
vt 0.531250 0.250000
vt 0.531250 0.250000
vt 0.531250 0.250000
vt 0.531250 0.250000
vt 0.531250 0.250000
vt 0.531250 0.500000
vt 0.531250 0.500000
vt 0.531250 0.500000
vt 0.531250 0.500000
vt 0.531250 0.500000
vt 0.531250 0.500000
vt 0.531250 0.500000
vt 0.531250 0.750000
vt 0.531250 0.375000
vt 0.437500 0.375000
vt 0.437500 0.375000
vt 0.437500 0.375000
vt 0.437500 0.375000
vt 0.437500 0.375000
vt 0.437500 0.375000
vt 0.375000 0.375000
vt 0.375000 0.375000
vt 0.375000 0.375000
vt 0.250000 0.250000
vt 0.375000 0.375000
vt 0.250000 0.000000
vt 0.375000 0.875000
vt 0.437500 0.875000
vt 0.531250 0.875000
vt 0.576971 0.500000
vn 0.000000 0.000000 1.000000
vn 0.000000 0.000000 1.000000
vn 0.000000 0.000000 1.000000
vn 0.000000 0.000000 1.000000
vn 0.000000 1.000000 0.000000
vn 0.000000 1.000000 -0.000000
vn 0.000000 1.000000 0.000000
vn 0.000000 1.000000 0.000000
vn 0.000000 0.000000 -1.000000
vn 0.000000 0.000000 -1.000000
vn 0.000000 0.000000 -1.000000
vn 0.000000 0.000000 -1.000000
vn 0.000000 -1.000000 0.000000
vn 0.000000 -1.000000 0.000000
vn 0.000000 -1.000000 0.000000
vn 0.000000 -1.000000 0.000000
vn 0.000000 -1.000000 0.000000
vn 0.803084 0.000000 0.595866
vn 0.803084 0.000000 0.595866
vn 1.000000 0.000000 0.000000
vn 1.000000 0.000000 0.000000
vn -1.000000 0.000000 0.000000
vn -1.000000 0.000258 0.000000
vn -1.000000 0.000196 0.000000
vn -1.000000 0.000000 0.000000
vn 0.803084 0.000000 -0.595866
vn 0.803084 0.000000 -0.595866
vn 0.554776 0.000000 0.832000
vn 0.554776 0.000000 0.832000
vn 0.554776 0.000000 -0.832000
vn 0.554776 0.000000 -0.832000
vn 0.000000 -0.593049 0.805166
vn 0.000000 -0.593050 0.805166
vn 0.000000 -0.593050 0.805166
vn 0.000000 -0.593050 0.805166
vn 0.101398 -0.657747 0.746383
vn 0.466264 -0.808024 0.360132
vn 0.494005 -0.813122 0.307883
vn 0.229319 -0.723679 0.650924
vn 0.562170 -0.827022 0.000000
vn 0.562170 -0.827022 0.000000
vn 0.466264 -0.808024 -0.360132
vn 0.494005 -0.813122 -0.307883
vn 0.101471 -0.657790 -0.746335
vn 0.229405 -0.723717 -0.650851
vn 0.000000 -0.593050 -0.805166
vn 0.000000 -0.593050 -0.805166
vn 0.000000 -0.593050 -0.805166
vn 0.000000 -0.593050 -0.805166
vn -1.000000 0.000426 0.000000
vn -1.000000 0.000571 0.000000
vn 0.000000 0.000000 1.000000
vn 0.000000 0.000000 1.000000
vn 0.000000 -0.066386 0.997794
vn 0.000000 -0.073361 0.997306
vn 0.593943 0.000000 0.804507
vn 0.593943 0.000000 0.804507
vn 0.593943 0.000000 0.804507
vn 0.593943 0.000000 0.804507
vn 0.955462 0.000000 0.295114
vn 0.955462 0.000000 0.295114
vn 0.955462 0.000000 0.295114
vn 0.955462 0.000000 0.295114
vn 0.955462 0.000000 -0.295114
vn 0.955462 0.000000 -0.295114
vn 0.955462 0.000000 -0.295114
vn 0.955462 0.000000 -0.295114
vn 0.593943 0.000000 -0.804507
vn 0.593943 0.000000 -0.804507
vn 0.593943 0.000000 -0.804507
vn 0.593943 0.000000 -0.804507
vn 0.000000 0.000000 -1.000000
vn 0.000000 0.000000 -1.000000
vn 0.000000 -0.073361 -0.997305
vn 0.000000 -0.066370 -0.997795
vn -1.000000 -0.000000 0.000000
vn -1.000000 -0.000000 0.000000
vn 0.000000 -1.000000 0.000000
vn 0.000000 -1.000000 0.000000
vn 0.000000 -1.000000 0.000000
vn 0.000000 -1.000000 0.000000
vn 0.000000 1.000000 0.000000
vn 0.000000 1.000000 0.000000
vn 0.000000 1.000000 -0.000000
vn 0.000000 1.000000 -0.000000
vn 0.000000 0.000000 -1.000000
vn 0.000000 0.000000 -1.000000
vn 0.000000 -0.593050 -0.805166
vn 0.000000 -0.593050 -0.805166
vn 0.000000 0.000000 -1.000000
vn 0.000000 0.000000 -1.000000
vn 0.000000 0.000000 1.000000
vn 0.000000 0.000000 1.000000
vn 0.000000 -0.593050 0.805166
vn 0.000000 -0.593050 0.805166
vn 0.000000 0.000000 1.000000
vn 0.000000 0.000000 1.000000
vn 0.000000 -0.080861 0.996725
vn 0.000000 -0.080861 0.996725
vn 1.000000 -0.000000 0.000003
vn 1.000000 -0.000000 0.000003
vn 1.000000 -0.000000 0.000003
vn 1.000000 -0.000000 0.000003
vn 0.000000 -0.080861 -0.996725
vn 0.000000 -0.080861 -0.996725
vn -1.000000 -0.000000 0.000000
vn -1.000000 -0.000000 0.000000
vn 0.000000 1.000000 0.000001
vn 0.000000 1.000000 0.000000
vn 0.000000 1.000000 0.000000
vn 0.000000 1.000000 0.000001
vn 0.000000 1.000000 -0.000000
vn 0.000000 1.000000 -0.000000
vn 0.000000 1.000000 -0.000000
vn 0.000000 1.000000 -0.000000
vn 0.000000 1.000000 -0.000000
vn 0.000000 1.000000 -0.000000
vn 0.000000 1.000000 -0.000000
vn 0.000000 1.000000 -0.000000
vn 0.000000 1.000000 -0.000000
vn 0.000000 1.000000 -0.000000
vn 0.000000 1.000000 -0.000000
vn 0.000000 1.000000 0.000000
vn 0.000000 1.000000 0.000000
vn 0.000000 1.000000 -0.000000
vn 0.000000 1.000000 0.000001
vn 0.000000 1.000000 0.000001
vn -0.525078 0.350841 -0.775373
vn -0.525078 0.350841 -0.775373
vn -0.512624 0.433294 -0.741264
vn -0.502561 0.483807 -0.716494
vn -0.826609 0.489125 -0.278341
vn -0.860619 0.509250 0.000000
vn -0.802714 0.596365 -0.000000
vn -0.765949 0.592239 -0.250151
vn -0.826609 0.489125 0.278341
vn -0.765949 0.592239 0.250151
vn -0.525078 0.350842 0.775373
vn -0.525078 0.350842 0.775373
vn -0.502561 0.483807 0.716494
vn -0.512624 0.433295 0.741264
vn 0.000000 0.135719 0.990747
vn 0.000000 0.135719 0.990747
vn 0.000000 0.234417 0.972136
vn 0.000000 0.238273 0.971198
vn 0.999980 0.006357 0.000004
vn 0.999980 0.006357 0.000004
vn 0.992490 0.122326 0.000004
vn 0.988989 0.147989 0.000004
vn 0.000000 0.135718 -0.990747
vn 0.000000 0.135718 -0.990747
vn 0.000000 0.238252 -0.971203
vn 0.000000 0.234553 -0.972103
vn -0.501303 0.544540 -0.672437
vn -0.491722 0.560158 -0.666658
vn -0.529724 0.495041 -0.688714
vn -0.529724 0.495041 -0.688714
vn -0.730478 0.645036 -0.224344
vn -0.744274 0.667875 -0.000000
vn -0.805601 0.592458 -0.000000
vn -0.783563 0.576250 -0.232303
vn -0.730478 0.645036 0.224344
vn -0.783563 0.576250 0.232303
vn -0.491722 0.560158 0.666658
vn -0.501303 0.544540 0.672436
vn -0.529725 0.495041 0.688713
vn -0.529725 0.495041 0.688713
vn 0.000000 0.335578 0.942012
vn 0.000000 0.333949 0.942591
vn 0.000000 0.290064 0.957007
vn 0.000000 0.290064 0.957007
vn 0.978265 0.207360 0.000004
vn 0.972573 0.232598 0.000003
vn 0.999046 0.043677 0.000003
vn 0.999046 0.043677 0.000003
vn 0.000000 0.333879 -0.942616
vn 0.000000 0.335566 -0.942017
vn 0.000000 0.290064 -0.957007
vn 0.000000 0.290064 -0.957007
vn 0.000000 0.000000 1.000000
vn 0.000000 0.000000 1.000000
vn 0.000000 0.000000 1.000000
vn 0.000000 0.000000 1.000000
vn 0.000000 0.135718 -0.990747
vn 0.000000 0.196907 -0.980422
vn 0.000000 0.351099 -0.936338
vn 0.000000 0.290064 -0.957007
vn 0.000000 0.351022 0.936367
vn 0.000000 0.290064 0.957007
vn 0.000000 0.196983 0.980407
vn 0.000000 0.135719 0.990747
vn 0.000000 0.135719 0.990747
vn 0.000000 1.000000 -0.000000
vn 0.000000 0.000000 -1.000000
vn 0.000000 0.000000 -1.000000
vn 0.000000 0.000000 -1.000000
vn 0.000000 0.000000 -1.000000
vn 0.000000 1.000000 0.000000
vn 0.000000 1.000000 0.000000
vn 0.000000 1.000000 -0.000000
vn 0.000000 -1.000000 0.000000
vn 0.000000 1.000000 -0.000000
vn 0.000000 1.000000 0.000000
vn 0.972573 0.232598 0.000004
vn 0.999046 0.043677 0.000003
vn 0.992490 0.122326 0.000004
vn 0.999980 0.006357 0.000004
vn 1.000000 0.000000 0.000003
vn 1.000000 0.000000 0.000003
vn 0.000000 1.000000 -0.000000
vn 0.000000 1.000000 -0.000000
vn -1.000000 -0.000000 0.000000
vn -1.000000 -0.000000 0.000000
vn -1.000000 0.000426 0.000000
vn -1.000000 0.000258 0.000000
vn -1.000000 0.000000 0.000000
vn 0.000000 -1.000000 0.000000
vn 0.000000 -1.000000 0.000000
vn 0.000000 -1.000000 0.000000
vn 0.000000 -1.000000 0.000000
vn 0.000000 1.000000 -0.000000
vn 0.000000 1.000000 -0.000000
s 1
g Toilet
usemtl blinn1SG
f 1/1/1 34/46/2 35/48/3 3/3/4
s 2
f 76/90/5 85/99/6 86/100/7 61/74/8
s 3
f 5/5/9 32/44/10 33/45/11 7/7/12
s 4
f 8/8/13 14/25/14 10/17/15 98/114/16 84/98/17
s 5
f 12/22/18 11/20/19 10/18/20 9/16/21
s 6
f 1/1/22 3/3/23 95/109/24 96/111/25
s 5
f 9/16/21 10/18/20 14/26/26 13/24/27
f 2/2/28 11/20/19 12/22/18 4/4/29
f 13/24/27 14/26/26 8/11/30 6/12/31
s 7
f 3/3/32 35/48/33 36/49/34 15/27/35
f 4/4/36 12/21/37 17/29/38 16/28/39
f 12/21/37 9/15/40 18/30/41 17/29/38
f 9/15/40 13/23/42 19/31/43 18/30/41
f 13/23/42 6/6/44 20/32/45 19/31/43
f 32/44/46 5/5/47 21/33/48 31/43/49
s 6
f 95/110/24 3/3/23 15/27/50 94/108/51
s 10
f 15/27/52 36/49/53 29/41/54 22/34/55
s off
f 16/28/56 17/29/57 24/36/58 23/35/59
f 17/29/60 18/30/61 25/37/62 24/36/63
f 18/30/64 19/31/65 26/38/66 25/37/67
f 19/31/68 20/32/69 27/39/70 26/38/71
s 11
f 31/43/72 21/33/73 28/40/74 30/42/75
s 6
f 94/108/51 15/27/50 22/34/76 93/107/77
s 4
f 97/113/78 34/47/79 1/9/80 96/112/81
s 13
f 37/50/82 38/51/83 91/105/84 92/106/85
s 11
f 82/96/86 31/43/72 30/42/75 81/95/87
s 7
f 83/97/88 32/44/46 31/43/49 82/96/89
s 3
f 84/98/90 33/45/11 32/44/10 83/97/91
s 1
f 70/84/92 35/48/3 34/46/2 69/82/93
s 7
f 71/85/94 36/49/34 35/48/33 70/84/95
s 10
f 72/86/96 29/41/54 36/49/53 71/85/97
f 22/34/55 29/41/54 38/51/98 37/50/99
s 14
f 29/41/100 90/104/101 91/105/102 38/51/103
s 11
f 30/42/75 28/40/74 40/53/104 39/52/105
s 6
f 93/107/77 22/34/76 37/50/106 92/106/107
s 15
f 23/35/108 24/36/109 42/55/110 41/54/111
f 24/36/109 25/37/112 43/56/113 42/55/110
f 25/37/112 26/38/114 44/57/115 43/56/113
f 26/38/114 27/39/116 45/58/117 44/57/115
f 81/95/118 30/42/119 46/59/120 80/94/121
f 90/104/122 29/41/123 47/60/124 89/103/125
f 29/41/123 72/86/126 73/87/127 47/60/124
s 18
f 41/54/128 42/55/129 65/78/130 66/79/131
s 19
f 42/55/132 43/56/133 64/77/134 65/78/135
f 43/56/133 44/57/136 63/76/137 64/77/134
s 20
f 44/57/138 45/58/139 62/75/140 63/76/141
s 21
f 80/94/142 46/59/143 68/81/144 79/93/145
s 22
f 89/103/146 47/60/147 67/80/148 88/102/149
s 23
f 47/60/150 73/87/151 74/88/152 67/80/153
s 18
f 48/61/154 49/62/155 56/69/156 55/68/157
s 19
f 49/62/158 50/63/159 57/70/160 56/69/161
f 50/63/159 51/64/162 58/71/163 57/70/160
s 20
f 51/64/164 52/65/165 59/72/166 58/71/167
s 21
f 78/92/168 53/66/169 60/73/170 77/91/171
s 22
f 87/101/172 54/67/173 61/74/174 86/100/175
s 23
f 54/67/176 75/89/177 76/90/178 61/74/179
s 20
f 63/76/141 62/75/140 52/65/165 51/64/164
s 19
f 64/77/134 63/76/137 51/64/162 50/63/159
f 65/78/135 64/77/134 50/63/159 49/62/158
s 18
f 66/79/131 65/78/130 49/62/155 48/61/154
s 23
f 67/80/153 74/88/152 75/89/177 54/67/176
s 22
f 88/102/149 67/80/148 54/67/173 87/101/172
s 21
f 79/93/145 68/81/144 53/66/169 78/92/168
s 1
f 4/4/180 70/84/92 69/82/93 2/2/181
s 7
f 16/28/39 71/85/94 70/84/95 4/4/36
s 10
f 23/35/182 72/86/96 71/85/97 16/28/183
s 15
f 73/87/127 72/86/126 23/35/108 41/54/111
s 23
f 74/88/152 73/87/151 41/54/184 66/79/185
f 75/89/177 74/88/152 66/79/185 48/61/186
f 76/90/178 75/89/177 48/61/186 55/68/187
s 21
f 52/65/188 78/92/168 77/91/171 59/72/189
f 62/75/190 79/93/145 78/92/168 52/65/188
f 45/58/191 99/115/192 80/94/142 79/93/145 62/75/190
s 15
f 27/39/116 81/95/118 80/94/121 99/115/193 45/58/117
s 11
f 20/32/194 82/96/86 81/95/87 27/39/195
s 7
f 6/6/44 83/97/88 82/96/89 20/32/45
s 3
f 8/8/196 84/98/90 83/97/91 6/6/197
s 2
f 55/68/198 56/69/199 57/70/200 85/99/6 76/90/5
s 4
f 98/114/16 69/83/201 34/47/79 97/113/78
s 2
f 85/99/6 77/91/202 60/73/203 86/100/7
s 22
f 53/66/204 87/101/172 86/100/175 60/73/205
f 68/81/206 88/102/149 87/101/172 53/66/204
f 46/59/207 89/103/146 88/102/149 68/81/206
s 15
f 30/42/119 90/104/122 89/103/125 46/59/120
s 14
f 91/105/102 90/104/101 30/42/208 39/52/209
s 13
f 92/106/85 91/105/84 39/52/210 40/53/211
s 6
f 28/40/212 93/107/77 92/106/107 40/53/213
f 21/33/214 94/108/51 93/107/77 28/40/212
f 5/5/215 95/110/24 94/108/51 21/33/214
f 96/111/25 95/109/24 5/14/215 7/13/216
s 4
f 33/45/217 97/113/78 96/112/81 7/7/218
f 84/98/17 98/114/16 97/113/78 33/45/217
f 98/114/16 10/17/15 11/19/219 2/10/220 69/83/201
s 2
f 85/99/6 57/70/200 58/71/221 59/72/222 77/91/202
