# This file uses centimeters as units for non-parametric coordinates.

mtllib Toilet_bowl.mtl
g default
v -3.244488 1.740908 0.152631
v -3.202132 1.740911 0.294723
v -2.636609 1.727054 0.670550
v -3.086473 1.741071 0.495672
v -2.144395 1.720958 0.634517
v -1.366280 1.754252 0.152631
v -1.498986 1.747774 0.322368
v -1.722632 1.742074 0.530822
v -3.202132 1.740911 -0.295047
v -3.244488 1.740908 -0.152955
v -3.086473 1.741071 -0.495997
v -2.636609 1.727054 -0.670875
v -2.144395 1.720958 -0.634842
v -1.498986 1.747774 -0.322693
v -1.366280 1.754252 -0.152955
v -1.722632 1.742074 -0.531147
v -1.284619 1.760270 -0.000162
v -1.305139 1.759079 0.068277
v -1.305139 1.759079 -0.068602
v -3.269061 1.741578 -0.000162
v -3.261899 1.741272 0.068277
v -3.261899 1.741272 -0.068602
v -2.543895 0.581171 0.119102
v -2.543895 0.581171 0.061634
v -2.751765 0.601585 0.050271
v -2.737334 0.601585 0.098792
v -2.523350 0.581171 0.246968
v -2.700310 0.601585 0.163250
v -2.263544 0.581171 0.061634
v -2.287190 0.581171 0.126420
v -2.329451 0.581171 0.232924
v -2.039365 0.581171 0.060431
v -2.089817 0.581171 0.125716
v -2.172539 0.581171 0.193026
v -2.543895 0.581171 -0.119427
v -2.737334 0.601585 -0.099116
v -2.751765 0.601585 -0.050595
v -2.543895 0.581171 -0.061959
v -2.700311 0.601585 -0.163574
v -2.523351 0.581171 -0.247292
v -2.287189 0.581171 -0.126745
v -2.263544 0.581171 -0.061959
v -2.329451 0.581171 -0.233248
v -2.089817 0.581171 -0.126040
v -2.039365 0.581171 -0.060755
v -2.172539 0.581171 -0.193350
v -2.013410 0.581171 -0.000162
v -2.018418 0.581171 0.023278
v -2.251582 0.581171 -0.000162
v -2.251582 0.581171 0.027518
v -2.018419 0.581171 -0.023603
v -2.251582 0.581171 -0.027842
v -2.543895 0.581171 0.027518
v -2.543895 0.581171 -0.000162
v -2.760028 0.601585 -0.000162
v -2.757740 0.601585 0.021457
v -2.543895 0.581171 -0.027842
v -2.757740 0.601585 -0.021782
v -2.818153 1.038671 0.122324
v -2.836016 1.038671 0.062264
v -2.843412 1.038671 0.026599
v -2.846244 1.038671 -0.000162
v -2.843412 1.038671 -0.026923
v -2.836016 1.038671 -0.062589
v -2.818153 1.038671 -0.122649
v -2.772324 1.038671 -0.202436
v -2.555767 1.062481 -0.306063
v -2.315756 1.062481 -0.288679
v -2.121528 1.062481 -0.239293
v -2.019133 1.062481 -0.141876
v -1.956682 1.062481 -0.072717
v -1.930755 1.062481 -0.036972
v -1.924556 1.062481 -0.000162
v -1.930755 1.062481 0.036647
v -1.956682 1.062481 0.072393
v -2.019133 1.062481 0.141552
v -2.121528 1.062481 0.238969
v -2.315756 1.062481 0.288355
v -2.555767 1.062481 0.305739
v -2.772324 1.038671 0.202112
v -3.248784 1.038671 0.122324
v -3.266646 1.038671 0.062264
v -3.226278 0.603282 0.115249
v -3.243109 0.603282 0.058658
v -3.274043 1.038671 0.026599
v -3.250078 0.603282 0.025053
v -3.276874 1.038671 -0.000162
v -3.252746 0.603282 -0.000162
v -3.274043 1.038671 -0.026923
v -3.250078 0.603282 -0.025377
v -3.266647 1.038671 -0.062589
v -3.243109 0.603282 -0.058983
v -3.248784 1.038671 -0.122649
v -3.226278 0.603282 -0.115574
v -3.202955 1.038671 -0.202436
v -3.183097 0.603282 -0.190752
v -3.202955 1.038671 0.202112
v -3.183096 0.603282 0.190428
v -3.014931 1.403394 0.107613
v -2.986236 1.403327 0.209029
v -2.598039 1.405155 0.478827
v -2.909566 1.403735 0.350486
v -2.261422 1.403579 0.451941
v -1.790739 1.391833 0.142310
v -1.844753 1.392075 0.219504
v -1.985577 1.395906 0.368111
v -2.986236 1.403327 -0.209354
v -3.014931 1.403394 -0.107937
v -2.909566 1.403735 -0.350811
v -2.598039 1.405155 -0.479151
v -2.261422 1.403579 -0.452265
v -1.844753 1.392075 -0.219828
v -1.790739 1.391833 -0.142635
v -1.985577 1.395906 -0.368436
v -1.719815 1.385590 -0.000162
v -1.728380 1.386614 0.037433
v -1.728380 1.386613 -0.037757
v -3.031325 1.403244 -0.000162
v -3.026599 1.403261 0.047449
v -3.026599 1.403261 -0.047773
v -3.773925 2.437603 0.314407
v -3.647089 2.437603 0.562623
v -3.373768 2.437603 0.814318
v -2.812723 2.437603 1.041881
v -2.036408 2.437603 0.985900
v -1.400053 2.443915 0.800403
v -1.058154 2.437603 0.549633
v -0.857720 2.437603 0.285228
v -0.767287 2.437603 0.120524
v -0.736427 2.437603 -0.000162
v -0.767287 2.437603 -0.120848
v -0.857720 2.437603 -0.285553
v -1.058154 2.437603 -0.549958
v -1.400053 2.443915 -0.800727
v -2.036408 2.437603 -0.986224
v -2.812723 2.437603 -1.042205
v -3.373768 2.437603 -0.814642
v -3.647088 2.437603 -0.562948
v -3.773925 2.437603 -0.314731
v -3.801223 2.437603 -0.131414
v -3.812523 2.437603 -0.000162
v -3.801223 2.437603 0.131090
vt 0.394496 0.623597
vt 0.405548 0.623603
vt 0.407723 0.663799
vt 0.398383 0.661027
vt 0.385964 0.653931
vt 0.303053 0.494466
vt 0.393086 0.574213
vt 0.405547 0.569666
vt 0.266576 0.502721
vt 0.215758 0.511913
vt 0.199989 0.513727
vt 0.236061 0.508964
vt 0.440367 0.623599
vt 0.436480 0.661030
vt 0.427139 0.663801
vt 0.429316 0.623604
vt 0.873190 0.514123
vt 0.071371 0.494449
vt 0.441781 0.574215
vt 0.429320 0.569667
vt 0.107849 0.502699
vt 0.158665 0.511903
vt 0.174433 0.513724
vt 0.138364 0.508939
vt 0.191819 0.514477
vt 0.187211 0.514653
vt 0.417434 0.567365
vt 0.412110 0.567365
vt 0.182603 0.514478
vt 0.422758 0.567366
vt 0.412109 0.623605
vt 0.417432 0.623605
vt 0.417431 0.665387
vt 0.413270 0.664948
vt 0.422755 0.623606
vt 0.421593 0.664948
vt 0.441002 0.526250
vt 0.390353 0.511566
vt 0.443178 0.351682
vt 0.471458 0.356271
vt 0.328158 0.479127
vt 0.236530 0.410722
vt 0.327064 0.281679
vt 0.400318 0.338677
vt 0.138538 0.300082
vt 0.264629 0.210496
vt 0.027614 0.124475
vt 0.009338 0.063188
vt 0.174962 0.054470
vt 0.187967 0.093540
vt 0.062674 0.198296
vt 0.210945 0.146987
vt 0.611658 0.511659
vt 0.560889 0.526240
vt 0.531170 0.356302
vt 0.559440 0.351742
vt 0.674343 0.479623
vt 0.602343 0.338990
vt 0.766567 0.410767
vt 0.675377 0.281647
vt 0.864287 0.298970
vt 0.737086 0.209941
vt 0.991247 0.060467
vt 0.973614 0.121892
vt 0.813019 0.092779
vt 0.825765 0.053575
vt 0.939279 0.195979
vt 0.790231 0.146382
vt 0.002123 0.027712
vt 0.000993 0.003734
vt 0.832512 0.020518
vt 0.168862 0.035345
vt 0.998114 0.024937
vt 0.831740 0.034393
vt 0.500933 0.530530
vt 0.475983 0.529253
vt 0.488012 0.358243
vt 0.501314 0.359106
vt 0.525890 0.529245
vt 0.514616 0.358256
vt 0.728761 0.606150
vt 0.509540 0.555382
vt 0.718124 0.522088
vt 0.406104 0.758323
vt 0.735768 0.606231
vt 0.412567 0.759664
vt 0.740945 0.606262
vt 0.417416 0.760178
vt 0.746121 0.606232
vt 0.422266 0.759666
vt 0.753128 0.606155
vt 0.428729 0.758327
vt 0.765181 0.605966
vt 0.439614 0.755092
vt 0.782875 0.605468
vt 0.780469 0.521627
vt 0.581086 0.169827
vt 0.541282 0.191464
vt 0.611279 0.135437
vt 0.633674 0.104513
vt 0.643342 0.079358
vt 0.648893 0.062436
vt 0.651098 0.054232
vt 0.349156 0.046684
vt 0.349469 0.053877
vt 0.351773 0.062056
vt 0.357564 0.078935
vt 0.367488 0.104053
vt 0.390185 0.134859
vt 0.420713 0.169280
vt 0.460851 0.191368
vt 0.699015 0.605452
vt 0.380761 0.746780
vt 0.489172 0.197750
vt 0.477560 0.196022
vt 0.496052 0.198468
vt 0.501138 0.198739
vt 0.506219 0.198461
vt 0.513091 0.197738
vt 0.524663 0.196034
vt 0.491945 0.277497
vt 0.479934 0.276291
vt 0.459432 0.273176
vt 0.428799 0.264907
vt 0.374449 0.226859
vt 0.330644 0.177143
vt 0.298697 0.130399
vt 0.285511 0.092376
vt 0.280719 0.074547
vt 0.276243 0.051181
vt 0.573899 0.265165
vt 0.543296 0.273344
vt 0.522791 0.276367
vt 0.510779 0.277535
vt 0.627751 0.226989
vt 0.671117 0.177149
vt 0.702551 0.129922
vt 0.719860 0.073887
vt 0.715248 0.091748
vt 0.724116 0.050507
vt 0.724014 0.043002
vt 0.501362 0.277979
vt 0.999006 0.000966
vt 0.276273 0.043674
vt 0.187217 0.608810
vt 0.651309 0.047045
vt 0.167990 0.021480
vt 0.395220 0.755084
vt 0.701452 0.521612
vt 0.340261 0.487449
vt 0.608722 0.514218
vt 0.501725 0.571264
vt 0.716708 0.605957
vt 0.547961 0.640004
vt 0.616391 0.599419
vt 0.373458 0.566292
vt 0.763797 0.522096
vt 0.454081 0.746793
vt 0.034162 0.487431
vt 0.448897 0.653935
vt 0.548644 0.529079
vt 0.566301 0.527828
vt 0.000977 0.566278
vt 0.865490 0.599322
vt 0.612538 0.596568
vt 0.752440 0.522274
vt 0.537139 0.532676
vt 0.745838 0.522347
vt 0.530652 0.535325
vt 0.740960 0.522375
vt 0.526076 0.537746
vt 0.736083 0.522345
vt 0.522109 0.541072
vt 0.729481 0.522270
vt 0.517210 0.546082
vt 0.555777 0.624121
vt 0.330491 0.583838
vt 0.285340 0.594055
vt 0.247568 0.601783
vt 0.220624 0.605422
vt 0.202838 0.607661
vt 0.194394 0.608593
vt 0.180039 0.608594
vt 0.171596 0.607658
vt 0.153811 0.605412
vt 0.126868 0.601759
vt 0.089096 0.594036
vt 0.043943 0.583824
vt 0.594881 0.597819
vt 0.583376 0.601416
vt 0.576889 0.604065
vt 0.572313 0.606486
vt 0.568345 0.609811
vt 0.563446 0.614821
vt 0.429092 0.526540
vt 0.421945 0.522510
vt 0.412927 0.522510
vt 0.405779 0.526539
vt 0.417436 0.521546
vt 0.454597 0.552161
vt 0.462267 0.582345
vt 0.441650 0.536246
vt 0.464959 0.619642
vt 0.393221 0.536244
vt 0.380272 0.552157
vt 0.372599 0.582341
vt 0.369904 0.619638
vn 0.047905 0.998780 -0.011947
vn 0.039963 0.999189 -0.004854
vn 0.099610 0.994959 -0.011637
vn 0.109648 0.993697 -0.023291
vn 0.119408 0.992202 -0.035743
vn 0.032048 0.999440 -0.009593
vn -0.000000 1.000000 -0.000000
vn 0.000000 1.000000 0.000000
vn -0.000000 1.000000 -0.000000
vn -0.000000 1.000000 -0.000000
vn 0.000000 1.000000 0.000000
vn -0.000000 1.000000 -0.000000
vn 0.047904 0.998780 0.011947
vn 0.109648 0.993698 0.023291
vn 0.099611 0.994958 0.011637
vn 0.039963 0.999189 0.004854
vn 0.119407 0.992202 0.035742
vn 0.032048 0.999440 0.009593
vn -0.000000 1.000000 -0.000000
vn -0.000000 1.000000 -0.000000
vn -0.000000 1.000000 -0.000000
vn 0.000000 1.000000 0.000000
vn 0.000000 1.000000 0.000000
vn 0.000000 1.000000 0.000000
vn 0.000000 1.000000 0.000000
vn 0.000000 1.000000 0.000000
vn 0.000000 1.000000 0.000000
vn -0.000000 1.000000 -0.000000
vn 0.000000 1.000000 0.000000
vn 0.000000 1.000000 0.000000
vn 0.038512 0.999254 -0.002852
vn 0.037562 0.999294 -0.000000
vn 0.094592 0.995516 -0.000000
vn 0.095654 0.995392 -0.006764
vn 0.038512 0.999254 0.002852
vn 0.095654 0.995392 0.006764
vn 0.751134 0.613677 -0.243307
vn 0.679163 0.584806 -0.443555
vn 0.696519 0.581378 -0.420548
vn 0.761222 0.604614 -0.234485
vn 0.453137 0.533581 -0.714114
vn 0.139664 0.485143 -0.863209
vn 0.110841 0.489196 -0.865102
vn 0.452398 0.535287 -0.713305
vn -0.151364 0.451396 -0.879392
vn -0.145818 0.470976 -0.870011
vn -0.595451 0.556512 -0.579424
vn -0.669586 0.583863 -0.459084
vn -0.645945 0.614183 -0.453359
vn -0.577619 0.583837 -0.570518
vn -0.390005 0.495746 -0.775972
vn -0.366167 0.517700 -0.773246
vn 0.679163 0.584805 0.443554
vn 0.751134 0.613677 0.243307
vn 0.761222 0.604614 0.234485
vn 0.696519 0.581378 0.420548
vn 0.453138 0.533581 0.714113
vn 0.452398 0.535287 0.713305
vn 0.139664 0.485143 0.863209
vn 0.110841 0.489196 0.865102
vn -0.151363 0.451395 0.879393
vn -0.145818 0.470975 0.870011
vn -0.669586 0.583863 0.459084
vn -0.595451 0.556512 0.579424
vn -0.577619 0.583837 0.570518
vn -0.645945 0.614183 0.453359
vn -0.390005 0.495746 0.775972
vn -0.366167 0.517700 0.773246
vn -0.729784 0.606072 -0.316373
vn -0.760457 0.616939 -0.202707
vn -0.751625 0.659590 -0.000000
vn -0.697267 0.635611 -0.331388
vn -0.760457 0.616939 0.202707
vn -0.729784 0.606072 0.316373
vn -0.697267 0.635611 0.331388
vn 0.787821 0.615905 0.000000
vn 0.780841 0.615901 -0.104659
vn 0.786961 0.607266 -0.109180
vn 0.794077 0.607817 0.000000
vn 0.780841 0.615901 0.104659
vn 0.786961 0.607266 0.109180
vn 0.965511 0.054305 -0.254635
vn 0.908909 0.053702 -0.413523
vn 0.908589 0.053697 -0.414225
vn 0.965445 0.054304 -0.254885
vn 0.985384 0.054810 -0.161290
vn 0.985334 0.054809 -0.161592
vn 0.998468 0.055333 0.000003
vn 0.998468 0.055333 0.000003
vn 0.985385 0.054810 0.161285
vn 0.985335 0.054808 0.161587
vn 0.965512 0.054305 0.254633
vn 0.965446 0.054303 0.254883
vn 0.908908 0.053702 0.413524
vn 0.908588 0.053697 0.414226
vn 0.865926 0.052843 0.497372
vn 0.865926 0.052843 0.497372
vn 0.161179 0.322227 0.932840
vn 0.383336 0.319131 0.866723
vn 0.424406 0.143304 0.894060
vn 0.161545 0.132921 0.977873
vn -0.148600 0.291400 0.944989
vn -0.150406 0.117333 0.981637
vn -0.415407 0.318586 0.852021
vn -0.418089 0.126280 0.899586
vn -0.683234 0.316907 0.657846
vn -0.699633 0.134452 0.701738
vn -0.757699 0.322241 0.567497
vn -0.782041 0.146228 0.605829
vn -0.838937 0.365591 0.403147
vn -0.901238 0.171584 0.397907
vn -0.914916 0.361635 0.179298
vn -0.967105 0.179838 0.179909
vn -0.838937 0.365592 -0.403147
vn -0.914916 0.361638 -0.179293
vn -0.967106 0.179839 -0.179898
vn -0.901237 0.171584 -0.397907
vn -0.757699 0.322241 -0.567497
vn -0.782040 0.146228 -0.605831
vn -0.683234 0.316906 -0.657846
vn -0.699633 0.134453 -0.701738
vn -0.415407 0.318585 -0.852021
vn -0.418089 0.126280 -0.899586
vn -0.148600 0.291400 -0.944989
vn -0.150407 0.117333 -0.981637
vn 0.161179 0.322227 -0.932840
vn 0.161545 0.132921 -0.977873
vn 0.383336 0.319131 -0.866723
vn 0.424405 0.143304 -0.894060
vn 0.865925 0.052843 -0.497374
vn 0.865925 0.052843 -0.497374
vn 0.000000 -1.000000 0.000000
vn 0.000000 -1.000000 0.000000
vn 0.000000 -1.000000 0.000000
vn 0.000000 -1.000000 0.000000
vn 0.003438 0.999994 -0.001022
vn 0.003438 0.999994 -0.001022
vn 0.003438 0.999994 -0.001022
vn 0.003438 0.999994 -0.001022
vn 0.000000 -1.000000 0.000000
vn 0.000000 -1.000000 0.000000
vn 0.000000 -1.000000 0.000000
vn 0.000000 -1.000000 0.000000
vn 0.003443 0.999994 -0.000714
vn 0.003443 0.999994 -0.000714
vn 0.003443 0.999994 -0.000714
vn 0.003443 0.999994 -0.000714
vn 0.000000 -1.000000 0.000000
vn 0.000000 -1.000000 0.000000
vn 0.000000 -1.000000 0.000000
vn 0.000000 -1.000000 0.000000
vn 0.003445 0.999994 -0.000365
vn 0.003445 0.999994 -0.000365
vn 0.003445 0.999994 -0.000365
vn 0.003445 0.999994 -0.000365
vn 0.000000 -1.000000 0.000000
vn 0.000000 -1.000000 0.000000
vn 0.000000 -1.000000 0.000000
vn 0.000000 -1.000000 0.000000
vn 0.003445 0.999994 0.000365
vn 0.003445 0.999994 0.000365
vn 0.003445 0.999994 0.000365
vn 0.003445 0.999994 0.000365
vn 0.000000 -1.000000 0.000000
vn 0.000000 -1.000000 0.000000
vn 0.000000 -1.000000 0.000000
vn 0.000000 -1.000000 0.000000
vn 0.003443 0.999994 0.000714
vn 0.003443 0.999994 0.000714
vn 0.003443 0.999994 0.000714
vn 0.003443 0.999994 0.000714
vn 0.000000 -1.000000 0.000000
vn 0.000000 -1.000000 0.000000
vn 0.000000 -1.000000 0.000000
vn 0.000000 -1.000000 0.000000
vn 0.003438 0.999994 0.001022
vn 0.003438 0.999994 0.001022
vn 0.003438 0.999994 0.001022
vn 0.003438 0.999994 0.001022
vn 0.000000 -1.000000 0.000000
vn 0.000000 -1.000000 0.000000
vn 0.000000 -1.000000 0.000000
vn 0.000000 -1.000000 0.000000
vn 0.003406 0.999992 0.001956
vn 0.003406 0.999992 0.001956
vn 0.003406 0.999992 0.001956
vn 0.003406 0.999992 0.001956
vn -0.029595 0.054706 0.998064
vn -0.029595 0.054706 0.998064
vn -0.029595 0.054706 0.998064
vn -0.029595 0.054706 0.998064
vn 0.000000 -1.000000 0.000000
vn 0.000000 -1.000000 0.000000
vn 0.000000 -1.000000 0.000000
vn 0.000000 -1.000000 0.000000
vn -0.029595 0.054705 -0.998064
vn -0.029595 0.054705 -0.998064
vn -0.029595 0.054705 -0.998064
vn -0.029595 0.054705 -0.998064
vn 0.003406 0.999992 -0.001956
vn 0.003406 0.999992 -0.001956
vn 0.003406 0.999992 -0.001956
vn 0.003406 0.999992 -0.001956
vn 0.839931 0.526505 -0.131562
vn 0.824916 0.524001 -0.211981
vn 0.864324 0.452004 -0.220536
vn 0.881587 0.451154 -0.138793
vn 0.775877 0.526178 -0.348069
vn 0.812431 0.460847 -0.357178
vn 0.477019 0.522232 -0.706913
vn 0.775136 0.462861 -0.430028
vn 0.139635 0.498279 -0.855699
vn -0.137568 0.496229 -0.857223
vn -0.372526 0.561823 -0.738633
vn -0.581127 0.614921 -0.533071
vn -0.631224 0.632886 -0.448342
vn -0.667323 0.660522 -0.344080
vn 0.477019 0.522232 0.706914
vn 0.775876 0.526179 0.348069
vn 0.812431 0.460848 0.357178
vn 0.775135 0.462862 0.430028
vn 0.824917 0.524000 0.211981
vn 0.864324 0.452004 0.220536
vn 0.839931 0.526505 0.131562
vn 0.881588 0.451154 0.138792
vn 0.139635 0.498279 0.855699
vn -0.137568 0.496229 0.857223
vn -0.372526 0.561824 0.738633
vn -0.631224 0.632887 0.448342
vn -0.581126 0.614922 0.533070
vn -0.667323 0.660521 0.344080
vn -0.714747 0.699384 -0.000000
vn 0.847613 0.530614 0.000000
vn 0.891568 0.452886 0.000000
s 1
g textureBakeSet1 Da_shittah_03:Bowl Da_shittah_03:polySurface1
usemtl baked_Da_shittah_03_unwrapChekcerShaderSG_Da_shittah_03_BowlSG
f 23/1/1 24/2/2 25/3/3 26/4/4
f 28/5/5 27/207/6 23/1/1 26/4/4
f 30/7/7 29/8/8 24/2/2 23/1/1
f 27/207/6 31/206/9 30/7/7 23/1/1
f 33/204/10 32/198/11 29/8/8 30/7/7
f 31/206/9 34/205/12 33/204/10 30/7/7
f 35/13/13 36/14/14 37/15/15 38/16/16
f 39/160/17 36/14/14 35/13/13 40/203/18
f 41/19/19 35/13/13 38/16/16 42/20/20
f 40/203/18 35/13/13 41/19/19 43/201/21
f 44/202/22 41/19/19 42/20/20 45/195/23
f 43/201/21 41/19/19 44/202/22 46/200/24
f 48/197/25 47/199/26 49/27/27 50/28/28
f 47/199/26 51/196/29 52/30/30 49/27/27
f 53/31/31 54/32/32 55/33/33 56/34/34
f 54/32/32 57/35/35 58/36/36 55/33/33
f 57/35/35 54/32/32 49/27/27 52/30/30
f 54/32/32 53/31/31 50/28/28 49/27/27
f 24/2/2 53/31/31 56/34/34 25/3/3
f 29/8/8 50/28/28 53/31/31 24/2/2
f 32/198/11 48/197/25 50/28/28 29/8/8
f 38/16/16 37/15/15 58/36/36 57/35/35
f 42/20/20 38/16/16 57/35/35 52/30/30
f 45/195/23 42/20/20 52/30/30 51/196/29
s 4
f 121/37/37 122/38/38 2/39/39 1/40/40
f 123/41/41 124/42/42 3/43/43 4/44/44
f 122/38/38 123/41/41 4/44/44 2/39/39
f 124/42/42 125/45/45 5/46/46 3/43/43
f 127/47/47 128/48/48 6/49/49 7/50/50
f 125/45/45 126/51/51 8/52/52 5/46/46
f 126/51/51 127/47/47 7/50/50 8/52/52
f 138/53/53 139/54/54 10/55/55 9/56/56
f 137/57/57 138/53/53 9/56/56 11/58/58
f 136/59/59 137/57/57 11/58/58 12/60/60
f 135/61/61 136/59/59 12/60/60 13/62/62
f 132/63/63 133/64/64 14/65/65 15/66/66
f 133/64/64 134/67/67 16/68/68 14/65/65
f 134/67/67 135/61/61 13/62/62 16/68/68
f 129/69/69 130/70/70 17/147/71 18/72/72
f 130/143/73 131/73/74 19/74/75 17/71/71
f 141/75/76 142/76/77 21/77/78 20/78/79
f 140/79/80 141/75/76 20/78/79 22/80/81
f 142/76/77 121/37/37 1/40/40 21/77/78
f 128/48/48 129/69/69 18/72/72 6/49/49
f 139/54/54 140/79/80 22/80/81 10/55/55
f 131/73/74 132/63/63 15/66/66 19/74/75
s 10
f 82/81/82 81/153/83 83/83/84 84/174/85
f 85/85/86 82/81/82 84/174/85 86/172/87
f 87/87/88 85/85/86 86/172/87 88/170/89
f 89/89/90 87/87/88 88/170/89 90/168/91
f 91/91/92 89/89/90 90/168/91 92/166/93
f 93/93/94 91/91/92 92/166/93 94/157/95
f 95/95/96 93/93/94 94/157/95 96/96/97
s 4
f 67/188/98 66/163/99 39/159/100 40/18/101
f 68/187/102 67/188/98 40/18/101 43/21/103
f 69/186/104 68/187/102 43/21/103 46/24/105
f 70/185/106 69/186/104 46/24/105 44/22/107
f 71/184/108 70/185/106 44/22/107 45/23/109
f 72/183/110 71/184/108 45/23/109 51/29/111
f 73/145/112 72/183/110 51/29/111 47/26/113
f 74/182/114 73/145/115 47/26/116 48/25/117
f 75/181/118 74/182/114 48/25/117 32/11/119
f 76/180/120 75/181/118 32/11/119 33/10/121
f 77/179/122 76/180/120 33/10/121 34/12/123
f 78/178/124 77/179/122 34/12/123 31/9/125
f 79/177/126 78/178/124 31/9/125 27/6/127
f 80/156/128 79/177/126 27/6/127 28/150/129
s 10
f 81/153/83 97/112/130 98/149/131 83/83/84
s off
f 60/194/132 59/176/133 81/82/134 82/175/135
f 26/4/136 25/3/137 84/84/138 83/148/139
f 61/193/140 60/194/141 82/175/142 85/173/143
f 25/3/144 56/34/145 86/86/146 84/84/147
f 62/192/148 61/193/149 85/173/150 87/171/151
f 56/34/152 55/33/153 88/88/154 86/86/155
f 63/191/156 62/192/157 87/171/158 89/169/159
f 55/33/160 58/36/161 90/90/162 88/88/163
f 64/190/164 63/191/165 89/169/166 91/167/167
f 58/36/168 37/15/169 92/92/170 90/90/171
f 65/189/172 64/190/173 91/167/174 93/161/175
f 37/15/176 36/14/177 94/94/178 92/92/179
f 66/165/180 65/189/181 93/161/182 95/162/183
f 36/14/184 39/160/185 96/158/186 94/94/187
f 39/17/188 66/164/189 95/95/190 96/96/191
f 59/176/192 80/154/193 97/152/194 81/82/195
f 80/155/196 28/151/197 98/149/198 97/112/199
f 28/5/200 26/4/201 83/148/202 98/113/203
s 4
f 119/121/204 99/122/205 60/114/206 61/116/207
f 99/122/205 100/123/208 59/115/209 60/114/206
f 100/123/208 102/124/210 80/111/211 59/115/209
f 102/124/210 101/125/212 79/110/126 80/111/128
f 101/125/212 103/126/213 78/109/124 79/110/126
f 103/126/213 106/127/214 77/108/122 78/109/124
f 105/128/215 104/129/216 75/106/118 76/107/120
f 104/129/216 116/130/217 74/105/114 75/106/118
f 106/127/214 105/128/215 76/107/120 77/108/122
f 109/131/218 107/132/219 65/120/220 66/98/221
f 107/132/219 108/133/222 64/119/223 65/120/220
f 108/133/222 120/134/224 63/118/225 64/119/223
f 110/135/226 109/131/218 66/98/99 67/97/98
f 111/136/227 110/135/226 67/97/98 68/99/102
f 114/137/228 111/136/227 68/99/102 69/100/104
f 113/138/229 112/139/230 70/101/106 71/102/108
f 112/139/230 114/137/228 69/100/104 70/101/106
f 117/140/231 113/138/229 71/102/108 72/103/110
f 116/130/217 115/144/232 73/104/115 74/105/114
f 115/141/232 117/140/231 72/103/110 73/146/112
f 120/134/224 118/142/233 62/117/234 63/118/225
f 118/142/233 119/121/204 61/116/207 62/117/234
f 1/40/40 2/39/39 100/123/208 99/122/205
f 4/44/44 3/43/43 101/125/212 102/124/210
f 2/39/39 4/44/44 102/124/210 100/123/208
f 3/43/43 5/46/46 103/126/213 101/125/212
f 7/50/50 6/49/49 104/129/216 105/128/215
f 5/46/46 8/52/52 106/127/214 103/126/213
f 8/52/52 7/50/50 105/128/215 106/127/214
f 9/56/56 10/55/55 108/133/222 107/132/219
f 11/58/58 9/56/56 107/132/219 109/131/218
f 12/60/60 11/58/58 109/131/218 110/135/226
f 13/62/62 12/60/60 110/135/226 111/136/227
f 15/66/66 14/65/65 112/139/230 113/138/229
f 14/65/65 16/68/68 114/137/228 112/139/230
f 16/68/68 13/62/62 111/136/227 114/137/228
f 18/72/72 17/147/71 115/144/232 116/130/217
f 17/71/71 19/74/75 117/140/231 115/141/232
f 20/78/79 21/77/78 119/121/204 118/142/233
f 22/80/81 20/78/79 118/142/233 120/134/224
f 21/77/78 1/40/40 99/122/205 119/121/204
f 6/49/49 18/72/72 116/130/217 104/129/216
f 10/55/55 22/80/81 120/134/224 108/133/222
f 19/74/75 15/66/66 113/138/229 117/140/231
