# This file uses centimeters as units for non-parametric coordinates.

mtllib Urinal_Inside.mtl
g default
v 0.000000 7.179814 1.860453
v 0.000000 7.741586 1.865549
v 0.000000 6.651737 1.864086
v 0.000000 9.271731 1.859401
v 0.000000 8.773138 1.863857
v 0.000000 8.237646 1.866587
v 0.000000 9.729843 1.864086
v 0.744728 7.742575 1.923513
v 0.650741 7.172449 1.918416
v 0.863864 6.733972 2.007807
v 0.462461 6.671738 1.917795
v 1.147963 7.149933 2.013767
v 1.369929 7.797995 2.018798
v 0.741703 8.254129 1.924551
v 0.665246 8.807793 1.921820
v 0.531540 9.313267 1.917365
v 0.492207 9.891797 2.008892
v 0.775314 9.831450 2.007807
v 1.071230 9.396739 2.012716
v 0.302919 9.763208 1.917795
v 1.268347 8.909174 2.017171
v 1.387479 8.340728 2.019902
v 0.000000 6.230789 4.118883
v 0.457750 6.297466 4.050276
v 0.703758 6.392150 3.929862
v 0.935507 6.203487 2.914890
v 0.521199 6.125029 2.977766
v 0.000000 6.081690 3.014197
v 0.949514 6.339388 2.399783
v 0.520103 6.269041 2.433891
v 0.843116 6.297819 3.449348
v 0.491169 6.211247 3.540994
v 0.000000 6.156240 3.593513
v 1.318614 7.575763 2.359013
v 1.274657 7.312197 2.734369
v 1.204333 7.042282 3.119731
v 1.087333 6.737532 3.525469
v 1.197942 6.964569 2.379398
v 1.199368 6.746222 2.824629
v 1.098085 6.567775 3.284540
v 0.908816 6.541199 3.758449
v -0.744728 7.742575 1.923513
v -0.650741 7.172449 1.918416
v -0.863864 6.733972 2.007807
v -0.462461 6.671738 1.917795
v -1.147963 7.149933 2.013767
v -1.369929 7.797995 2.018798
v -0.741703 8.254129 1.924551
v -0.665246 8.807793 1.921820
v -0.531540 9.313267 1.917365
v -0.492207 9.891797 2.008892
v -0.775314 9.831450 2.007807
v -1.071230 9.396739 2.012716
v -0.302919 9.763208 1.917795
v -1.268347 8.909174 2.017171
v -1.387479 8.340728 2.019902
v -0.457750 6.297466 4.050276
v -0.703758 6.392150 3.929862
v -0.935507 6.203487 2.914890
v -0.521199 6.125029 2.977766
v -0.949514 6.339388 2.399783
v -0.520103 6.269041 2.433891
v -0.843116 6.297819 3.449348
v -0.491169 6.211247 3.540994
v -1.318614 7.575763 2.359013
v -1.274657 7.312197 2.734369
v -1.204333 7.042282 3.119731
v -1.087333 6.737532 3.525469
v -1.197942 6.964569 2.379398
v -1.199368 6.746222 2.824629
v -1.098085 6.567775 3.284540
v -0.908816 6.541199 3.758449
v 0.000000 6.201034 1.731138
v -0.000000 6.013501 1.854546
v 0.240078 6.097150 1.933729
v 0.165407 6.196786 1.733362
v -0.000000 5.935917 2.174476
v 0.182366 5.928487 2.101180
v -0.165407 6.196785 1.733362
v -0.240078 6.097150 1.933729
v -0.182366 5.928487 2.101180
vt 0.168375 0.440114
vt 0.426266 0.589394
vt 0.455917 0.577210
vt 0.205012 0.438412
vt 0.175178 0.481372
vt 0.219429 0.485368
vt 0.121111 0.440635
vt 0.121111 0.481303
vt 0.386333 0.604395
vt 0.158158 0.637617
vt 0.143347 0.627722
vt 0.159858 0.595120
vt 0.199566 0.601099
vt 0.178517 0.632756
vt 0.169464 0.558480
vt 0.210893 0.565796
vt 0.174968 0.518395
vt 0.219182 0.524651
vt 0.121111 0.517226
vt 0.121111 0.556007
vt 0.121111 0.592101
vt 0.121110 0.625259
vt 0.423856 0.542482
vt 0.448503 0.541972
vt 0.386303 0.579012
vt 0.386331 0.566081
vt 0.401407 0.565595
vt 0.395895 0.577694
vt 0.418857 0.506353
vt 0.419560 0.469755
vt 0.443131 0.477414
vt 0.444051 0.510821
vt 0.386334 0.501617
vt 0.386331 0.465400
vt 0.386294 0.548090
vt 0.396456 0.553034
vt 0.419552 0.436403
vt 0.438274 0.444972
vt 0.386331 0.431289
vt 0.486463 0.552570
vt 0.491350 0.579062
vt 0.467727 0.488648
vt 0.479456 0.520085
vt 0.457041 0.456301
vt 0.525422 0.562231
vt 0.535079 0.587151
vt 0.513837 0.533113
vt 0.499431 0.502137
vt 0.476569 0.472061
vt 0.073845 0.440114
vt 0.037209 0.438412
vt 0.057575 0.408144
vt 0.346400 0.589394
vt 0.067043 0.481372
vt 0.022792 0.485368
vt 0.084062 0.637618
vt 0.063704 0.632756
vt 0.042655 0.601099
vt 0.082363 0.595120
vt 0.098875 0.627721
vt 0.031328 0.565796
vt 0.072757 0.558481
vt 0.023040 0.524651
vt 0.067253 0.518395
vt 0.324161 0.541975
vt 0.348803 0.542484
vt 0.376802 0.577692
vt 0.371251 0.565601
vt 0.353807 0.506354
vt 0.328613 0.510823
vt 0.329531 0.477416
vt 0.353102 0.469756
vt 0.376254 0.553026
vt 0.334387 0.444974
vt 0.353110 0.436404
vt 0.281316 0.579066
vt 0.286203 0.552574
vt 0.293209 0.520088
vt 0.304936 0.488651
vt 0.315621 0.456304
vt 0.237590 0.587159
vt 0.247245 0.562236
vt 0.258829 0.533118
vt 0.273234 0.502142
vt 0.296094 0.472065
vt 0.316749 0.577212
vt 0.121111 0.402415
vt 0.087397 0.403846
vt 0.184646 0.408144
vt 0.154824 0.403846
vn -0.133191 0.032373 0.990562
vn -0.317368 0.257520 0.912667
vn -0.445241 0.453805 0.771895
vn -0.177637 0.051286 0.982759
vn -0.119671 0.008684 0.992776
vn -0.156584 0.014586 0.987557
vn 0.000000 0.007649 0.999971
vn 0.000000 -0.002198 0.999998
vn -0.000000 -0.097171 0.995268
vn -0.160242 -0.132203 0.978185
vn -0.146482 -0.090073 0.985104
vn -0.135808 -0.057198 0.989083
vn -0.158683 -0.075785 0.984417
vn -0.160242 -0.132203 0.978185
vn -0.120563 -0.016992 0.992560
vn -0.151856 -0.030305 0.987938
vn -0.114076 -0.006003 0.993454
vn -0.148075 -0.011169 0.988913
vn 0.000000 -0.001532 0.999999
vn -0.000000 -0.002138 0.999998
vn -0.000000 -0.016629 0.999862
vn -0.000000 -0.038430 0.999261
vn -0.528548 0.750814 0.396127
vn -0.591893 0.699876 0.399796
vn -0.000000 -0.087935 0.996126
vn -0.000001 0.827092 0.562066
vn -0.783562 0.497419 0.372297
vn -0.567115 0.138563 0.811900
vn -0.198431 0.978284 -0.059877
vn -0.194061 0.965880 -0.171511
vn -0.564473 0.796161 -0.217941
vn -0.607876 0.792782 0.044530
vn 0.000000 0.986865 -0.161545
vn -0.000000 0.988691 -0.149965
vn -0.000000 0.992679 -0.120782
vn -0.428885 0.901923 0.050927
vn -0.206518 0.962159 -0.177764
vn -0.477818 0.840786 -0.254498
vn -0.000000 0.987412 -0.158170
vn -0.922376 0.319238 0.217510
vn -0.902322 0.328117 0.279560
vn -0.895521 0.411287 -0.169958
vn -0.947034 0.320866 0.013085
vn -0.792946 0.535243 -0.291122
vn -0.964801 0.234313 0.119398
vn -0.953673 0.261307 0.149088
vn -0.986626 0.162712 0.009684
vn -0.978029 0.156411 -0.137821
vn -0.937579 0.263212 -0.227299
vn 0.133191 0.032373 0.990562
vn 0.177637 0.051286 0.982759
vn 0.445241 0.453805 0.771895
vn 0.317368 0.257520 0.912667
vn 0.119671 0.008684 0.992776
vn 0.156584 0.014586 0.987557
vn 0.160242 -0.132203 0.978185
vn 0.160242 -0.132203 0.978185
vn 0.158683 -0.075785 0.984417
vn 0.135808 -0.057198 0.989083
vn 0.146482 -0.090073 0.985104
vn 0.151856 -0.030305 0.987938
vn 0.120563 -0.016992 0.992560
vn 0.148075 -0.011169 0.988913
vn 0.114076 -0.006003 0.993454
vn 0.591893 0.699875 0.399796
vn 0.528548 0.750814 0.396126
vn 0.567115 0.138564 0.811900
vn 0.783562 0.497419 0.372297
vn 0.198431 0.978284 -0.059877
vn 0.607876 0.792782 0.044530
vn 0.564473 0.796161 -0.217941
vn 0.194061 0.965880 -0.171510
vn 0.428885 0.901923 0.050927
vn 0.477818 0.840786 -0.254498
vn 0.206518 0.962159 -0.177764
vn 0.902322 0.328117 0.279560
vn 0.922376 0.319238 0.217510
vn 0.947034 0.320866 0.013085
vn 0.895521 0.411287 -0.169958
vn 0.792946 0.535242 -0.291122
vn 0.953673 0.261307 0.149088
vn 0.964801 0.234313 0.119398
vn 0.986626 0.162712 0.009684
vn 0.978029 0.156411 -0.137821
vn 0.937579 0.263212 -0.227299
s 1
g Urinal_Inside Mouth_Urinal
usemtl blinn1SG
f 9/1/1 11/90/2 10/89/3 12/4/4
f 8/5/5 9/1/1 12/4/4 13/6/6
f 1/7/7 9/1/1 8/5/5 2/8/8
f 1/7/7 3/87/9 11/90/2 9/1/1
f 17/10/10 20/11/11 16/12/12 19/13/13 18/14/14
f 19/13/13 16/12/12 15/15/15 21/16/16
f 15/15/15 14/17/17 22/18/18 21/16/16
f 8/5/5 13/6/6 22/18/18 14/17/17
f 2/8/8 8/5/5 14/17/17 6/19/19
f 6/19/19 14/17/17 15/15/15 5/20/20
f 16/12/12 4/21/21 5/20/20 15/15/15
f 20/11/11 7/22/22 4/21/21 16/12/12
f 11/2/2 30/23/23 29/24/24 10/3/3
f 73/25/25 74/26/26 75/27/27 76/28/28
f 27/29/29 32/30/30 31/31/31 26/32/32
f 28/33/33 33/34/34 32/30/30 27/29/29
f 30/23/23 27/29/29 26/32/32 29/24/24
f 74/26/26 77/35/35 78/36/36 75/27/27
f 32/30/30 24/37/37 25/38/38 31/31/31
f 33/34/34 23/39/39 24/37/37 32/30/30
f 29/24/24 38/40/40 12/41/41 10/3/3
f 31/31/31 40/42/42 39/43/43 26/32/32
f 26/32/32 39/43/43 38/40/40 29/24/24
f 25/38/38 41/44/44 40/42/42 31/31/31
f 38/40/40 34/45/45 13/46/46 12/41/41
f 39/43/43 35/47/47 34/45/45 38/40/40
f 40/42/42 36/48/48 35/47/47 39/43/43
f 41/44/44 37/49/49 36/48/48 40/42/42
f 43/50/50 46/51/51 44/52/52 45/88/53
f 42/54/54 47/55/55 46/51/51 43/50/50
f 1/7/7 2/8/8 42/54/54 43/50/50
f 1/7/7 43/50/50 45/88/53 3/87/9
f 51/56/56 52/57/57 53/58/58 50/59/59 54/60/60
f 53/58/58 55/61/61 49/62/62 50/59/59
f 49/62/62 55/61/61 56/63/63 48/64/64
f 42/54/54 48/64/64 56/63/63 47/55/55
f 2/8/8 6/19/19 48/64/64 42/54/54
f 6/19/19 5/20/20 49/62/62 48/64/64
f 50/59/59 49/62/62 5/20/20 4/21/21
f 54/60/60 50/59/59 4/21/21 7/22/22
f 45/53/53 44/86/52 61/65/65 62/66/66
f 73/25/25 79/67/67 80/68/68 74/26/26
f 60/69/69 59/70/70 63/71/71 64/72/72
f 28/33/33 60/69/69 64/72/72 33/34/34
f 62/66/66 61/65/65 59/70/70 60/69/69
f 74/26/26 80/68/68 81/73/73 77/35/35
f 64/72/72 63/71/71 58/74/74 57/75/75
f 33/34/34 64/72/72 57/75/75 23/39/39
f 61/65/65 44/86/52 46/76/76 69/77/77
f 63/71/71 59/70/70 70/78/78 71/79/79
f 59/70/70 61/65/65 69/77/77 70/78/78
f 58/74/74 63/71/71 71/79/79 72/80/80
f 69/77/77 46/76/76 47/81/81 65/82/82
f 70/78/78 69/77/77 65/82/82 66/83/83
f 71/79/79 70/78/78 66/83/83 67/84/84
f 72/80/80 71/79/79 67/84/84 68/85/85
f 30/23/23 11/2/2 76/28/28 75/27/27
f 11/2/2 3/9/9 73/25/25 76/28/28
f 28/33/33 27/29/29 78/36/36 77/35/35
f 27/29/29 30/23/23 75/27/27 78/36/36
f 3/9/9 45/53/53 79/67/67 73/25/25
f 45/53/53 62/66/66 80/68/68 79/67/67
f 62/66/66 60/69/69 81/73/73 80/68/68
f 60/69/69 28/33/33 77/35/35 81/73/73
